<svg width="69" height="27" viewBox="0 0 69 27" fill="none" xmlns="http://www.w3.org/2000/svg">
<path d="M3.77131 22H0.475852L5.49716 7.45455H9.46023L14.4744 22H11.179L7.53551 10.7784H7.42188L3.77131 22ZM3.56534 16.2827H11.3494V18.6832H3.56534V16.2827ZM20.5895 22.2131C19.4721 22.2131 18.5109 21.9763 17.706 21.5028C16.9058 21.0246 16.2902 20.3617 15.8594 19.5142C15.4332 18.6667 15.2202 17.6913 15.2202 16.5881C15.2202 15.4706 15.4356 14.4905 15.8665 13.6477C16.3021 12.8002 16.92 12.1397 17.7202 11.6662C18.5204 11.188 19.4721 10.9489 20.5753 10.9489C21.527 10.9489 22.3603 11.1217 23.0753 11.4673C23.7902 11.813 24.3561 12.2983 24.7727 12.9233C25.1894 13.5483 25.419 14.2822 25.4616 15.125H22.6065C22.526 14.5805 22.313 14.1425 21.9673 13.8111C21.6264 13.4749 21.179 13.3068 20.625 13.3068C20.1562 13.3068 19.7467 13.4347 19.3963 13.6903C19.0507 13.9413 18.7808 14.3082 18.5866 14.7912C18.3925 15.2741 18.2955 15.8589 18.2955 16.5455C18.2955 17.2415 18.3902 17.8333 18.5795 18.321C18.7737 18.8087 19.0459 19.1804 19.3963 19.4361C19.7467 19.6918 20.1562 19.8196 20.625 19.8196C20.9706 19.8196 21.2808 19.7486 21.5554 19.6065C21.8348 19.4645 22.0644 19.2585 22.2443 18.9886C22.429 18.714 22.5497 18.3849 22.6065 18.0014H25.4616C25.4143 18.8348 25.187 19.5687 24.7798 20.2031C24.3774 20.8329 23.821 21.3253 23.1108 21.6804C22.4006 22.0355 21.5601 22.2131 20.5895 22.2131ZM27.3988 22V11.0909H30.332V12.9943H30.4457C30.6445 12.3172 30.9783 11.8059 31.4471 11.4602C31.9158 11.1098 32.4556 10.9347 33.0664 10.9347C33.2179 10.9347 33.3813 10.9441 33.5565 10.9631C33.7317 10.982 33.8855 11.008 34.0181 11.0412V13.7259C33.8761 13.6832 33.6796 13.6454 33.4286 13.6122C33.1777 13.5791 32.948 13.5625 32.7397 13.5625C32.2946 13.5625 31.8969 13.6596 31.5465 13.8537C31.2009 14.0431 30.9263 14.3082 30.7227 14.6491C30.5238 14.9901 30.4244 15.383 30.4244 15.8281V22H27.3988ZM40.0462 22.2131C38.924 22.2131 37.9581 21.9858 37.1484 21.5312C36.3435 21.072 35.7232 20.4233 35.2876 19.5852C34.852 18.7424 34.6342 17.7457 34.6342 16.5952C34.6342 15.473 34.852 14.4882 35.2876 13.6406C35.7232 12.7931 36.3364 12.1326 37.1271 11.6591C37.9226 11.1856 38.8554 10.9489 39.9254 10.9489C40.6451 10.9489 41.3151 11.0649 41.9354 11.2969C42.5604 11.5241 43.1049 11.8674 43.5689 12.3267C44.0376 12.786 44.4022 13.3636 44.6626 14.0597C44.9231 14.7509 45.0533 15.5606 45.0533 16.4886V17.3196H35.8416V15.4446H42.2053C42.2053 15.009 42.1106 14.6231 41.9212 14.2869C41.7318 13.9508 41.469 13.688 41.1328 13.4986C40.8014 13.3045 40.4155 13.2074 39.9751 13.2074C39.5159 13.2074 39.1087 13.3139 38.7536 13.527C38.4032 13.7353 38.1286 14.017 37.9297 14.3722C37.7308 14.7225 37.629 15.1132 37.6243 15.544V17.3267C37.6243 17.8665 37.7237 18.3329 37.9226 18.7259C38.1262 19.1188 38.4126 19.4219 38.782 19.6349C39.1513 19.848 39.5893 19.9545 40.0959 19.9545C40.4321 19.9545 40.7398 19.9072 41.0192 19.8125C41.2985 19.7178 41.5376 19.5758 41.7365 19.3864C41.9354 19.197 42.0869 18.965 42.1911 18.6903L44.9893 18.875C44.8473 19.5473 44.5561 20.1345 44.1158 20.6364C43.6802 21.1335 43.1167 21.5218 42.4254 21.8011C41.7389 22.0758 40.9458 22.2131 40.0462 22.2131Z" fill="white"/>
<path d="M62 8C53 10 50.9 16.17 48.82 21.34L50.71 22L51.66 19.7C52.14 19.87 52.64 20 53 20C64 20 67 3 67 3C66 5 59 5.25 54 6.25C49 7.25 47 11.5 47 13.5C47 15.5 48.75 17.25 48.75 17.25C52 8 62 8 62 8Z" fill="#037330"/>
</svg>
