<svg width="22" height="22" viewBox="0 0 12 12" fill="none" xmlns="http://www.w3.org/2000/svg">
<path d="M6.00001 2.4C5.89392 2.4 5.79218 2.35786 5.71716 2.28284C5.64215 2.20783 5.60001 2.10609 5.60001 2C5.60001 1.89391 5.64215 1.79217 5.71716 1.71716C5.79218 1.64214 5.89392 1.6 6.00001 1.6C6.10609 1.6 6.20783 1.64214 6.28285 1.71716C6.35786 1.79217 6.40001 1.89391 6.40001 2C6.40001 2.10609 6.35786 2.20783 6.28285 2.28284C6.20783 2.35786 6.10609 2.4 6.00001 2.4ZM6.00001 6.4C5.89392 6.4 5.79218 6.35786 5.71716 6.28284C5.64215 6.20783 5.60001 6.10609 5.60001 6C5.60001 5.89391 5.64215 5.79217 5.71716 5.71716C5.79218 5.64214 5.89392 5.6 6.00001 5.6C6.10609 5.6 6.20783 5.64214 6.28285 5.71716C6.35786 5.79217 6.40001 5.89391 6.40001 6C6.40001 6.10609 6.35786 6.20783 6.28285 6.28284C6.20783 6.35786 6.10609 6.4 6.00001 6.4ZM6.00001 10.4C5.89392 10.4 5.79218 10.3579 5.71716 10.2828C5.64215 10.2078 5.60001 10.1061 5.60001 10C5.60001 9.89391 5.64215 9.79217 5.71716 9.71716C5.79218 9.64214 5.89392 9.6 6.00001 9.6C6.10609 9.6 6.20783 9.64214 6.28285 9.71716C6.35786 9.79217 6.40001 9.89391 6.40001 10C6.40001 10.1061 6.35786 10.2078 6.28285 10.2828C6.20783 10.3579 6.10609 10.4 6.00001 10.4Z" stroke="black"/>
</svg>
