<svg width="22" height="22" viewBox="0 0 12 14" fill="none" xmlns="http://www.w3.org/2000/svg">
<path d="M9.48077 9.5L11.0962 9.0625L11.5 10.8125" stroke="black" stroke-linecap="round" stroke-linejoin="round"/>
<path d="M11.0962 9.0625C10.7374 10.1638 10.0858 11.1254 9.22335 11.8261C8.36094 12.5268 7.32636 12.9353 6.25 13C5.25502 13.0002 4.28409 12.6686 3.4691 12.0503C2.65411 11.4319 2.03457 10.5568 1.69462 9.54375M3.01923 6L1.40385 6.4375L1 4.6875" stroke="black" stroke-linecap="round" stroke-linejoin="round"/>
<path d="M1.40384 6.4375C2.0823 4.425 4.16615 2.5 6.24999 2.5C7.24983 2.50304 8.22432 2.84104 9.03987 3.46764C9.85542 4.09425 10.4721 4.97879 10.8054 6" stroke="black" stroke-linecap="round" stroke-linejoin="round"/>
</svg>
